<svg width="640" height="800" viewBox="0 0 640 800" fill="none" xmlns="http://www.w3.org/2000/svg">
<rect width="640" height="800" rx="40" fill="#07090F"/>
<rect x="24" y="24" width="592" height="752" rx="30" fill="url(#paint0_linear)"/>
<circle cx="520" cy="132" r="110" fill="url(#paint1_radial)" fill-opacity="0.7"/>
<circle cx="162" cy="642" r="164" fill="url(#paint2_radial)" fill-opacity="0.5"/>
<path d="M320 218C367.496 218 406 179.496 406 132C406 84.5035 367.496 46 320 46C272.504 46 234 84.5035 234 132C234 179.496 272.504 218 320 218Z" fill="#182432"/>
<path d="M184 560C184 484.889 244.889 424 320 424C395.111 424 456 484.889 456 560V606H184V560Z" fill="#182432"/>
<path d="M240 602H400L476 750H164L240 602Z" fill="#111822"/>
<circle cx="320" cy="298" r="116" fill="#4ADE80" fill-opacity="0.12"/>
<circle cx="320" cy="298" r="88" fill="#4ADE80" fill-opacity="0.18"/>
<path d="M160 120H212" stroke="#4ADE80" stroke-width="10" stroke-linecap="round"/>
<path d="M160 154H244" stroke="#4ADE80" stroke-width="10" stroke-linecap="round"/>
<path d="M160 188H230" stroke="#4ADE80" stroke-width="10" stroke-linecap="round"/>
<text x="88" y="690" fill="#E8EEF8" fill-opacity="0.9" font-family="Segoe UI, Arial, sans-serif" font-size="42" font-weight="700" letter-spacing="0.12em">PHOTO</text>
<text x="88" y="736" fill="#9FB0C4" fill-opacity="0.76" font-family="Segoe UI, Arial, sans-serif" font-size="24" font-weight="600" letter-spacing="0.16em">PLACEHOLDER</text>
<defs>
<linearGradient id="paint0_linear" x1="70" y1="84" x2="558" y2="742" gradientUnits="userSpaceOnUse">
<stop stop-color="#0D1320"/>
<stop offset="1" stop-color="#081018"/>
</linearGradient>
<radialGradient id="paint1_radial" cx="0" cy="0" r="1" gradientUnits="userSpaceOnUse" gradientTransform="translate(520 132) rotate(90) scale(110)">
<stop stop-color="#4ADE80"/>
<stop offset="1" stop-color="#4ADE80" stop-opacity="0"/>
</radialGradient>
<radialGradient id="paint2_radial" cx="0" cy="0" r="1" gradientUnits="userSpaceOnUse" gradientTransform="translate(162 642) rotate(90) scale(164)">
<stop stop-color="#4ADE80"/>
<stop offset="1" stop-color="#4ADE80" stop-opacity="0"/>
</radialGradient>
</defs>
</svg>
